<?xml version="1.0" encoding="UTF-8" standalone="no"?>
<!-- Created with Inkscape (http://www.inkscape.org/) -->

<svg
   xmlns:dc="http://purl.org/dc/elements/1.1/"
   xmlns:cc="http://creativecommons.org/ns#"
   xmlns:rdf="http://www.w3.org/1999/02/22-rdf-syntax-ns#"
   xmlns:svg="http://www.w3.org/2000/svg"
   xmlns="http://www.w3.org/2000/svg"
   xmlns:sodipodi="http://sodipodi.sourceforge.net/DTD/sodipodi-0.dtd"
   xmlns:inkscape="http://www.inkscape.org/namespaces/inkscape"
   width="894.02338"
   height="569.9455"
   viewBox="0 0 894.02327 569.94549"
   version="1.1"
   id="svg47"
   inkscape:version="0.92.3 (2405546, 2018-03-11)"
   sodipodi:docname="activelogin-logo-white.svg"
   inkscape:export-filename="C:\repos\active\ActiveSolution\ActiveLogin.Marketing\docs\graphics\logo\active-login-logo-full-square-white.png"
   inkscape:export-xdpi="107.38"
   inkscape:export-ydpi="107.38">
  <defs
     id="defs41" />
  <sodipodi:namedview
     id="base"
     pagecolor="#ffffff"
     bordercolor="#666666"
     borderopacity="1.0"
     inkscape:pageopacity="0"
     inkscape:pageshadow="2"
     inkscape:zoom="0.49497475"
     inkscape:cx="-320.2993"
     inkscape:cy="339.51663"
     inkscape:document-units="px"
     inkscape:current-layer="g4816"
     showgrid="false"
     showguides="true"
     inkscape:window-width="2256"
     inkscape:window-height="1410"
     inkscape:window-x="-11"
     inkscape:window-y="-11"
     inkscape:window-maximized="1"
     fit-margin-top="0"
     fit-margin-left="0"
     fit-margin-right="0"
     fit-margin-bottom="0"
     units="px"
     inkscape:guide-bbox="true" />
  <metadata
     id="metadata44">
    <rdf:RDF>
      <cc:Work
         rdf:about="">
        <dc:format>image/svg+xml</dc:format>
        <dc:type
           rdf:resource="http://purl.org/dc/dcmitype/StillImage" />
        <dc:title></dc:title>
      </cc:Work>
    </rdf:RDF>
  </metadata>
  <g
     style="display:inline"
     inkscape:label="Active Logga"
     id="g4608"
     inkscape:groupmode="layer"
     transform="translate(-93.806389,14.37939)">
    <text
       id="text4606"
       y="642.87683"
       x="281.42856"
       style="font-style:normal;font-weight:normal;font-size:40px;line-height:1.25;font-family:sans-serif;letter-spacing:0px;word-spacing:0px;fill:#000000;fill-opacity:1;stroke:none"
       xml:space="preserve"><tspan
         y="679.37006"
         x="281.42856"
         id="tspan4604"
         sodipodi:role="line" /></text>
    <text
       xml:space="preserve"
       style="font-style:normal;font-variant:normal;font-weight:normal;font-stretch:normal;font-size:40px;line-height:1.25;font-family:'Arial Rounded MT Bold';-inkscape-font-specification:'Arial Rounded MT Bold, Normal';font-variant-ligatures:normal;font-variant-caps:normal;font-variant-numeric:normal;font-feature-settings:normal;text-align:start;letter-spacing:0px;word-spacing:0px;writing-mode:lr-tb;text-anchor:start;fill:#000000;fill-opacity:1;stroke:none"
       x="157.14786"
       y="757.2569"
       id="text87"><tspan
         sodipodi:role="line"
         id="tspan85"
         x="157.14786"
         y="793.30322" /></text>
  </g>
  <g
     inkscape:groupmode="layer"
     id="layer1"
     inkscape:label="Login Text"
     style="display:inline"
     transform="translate(-52.447266,696.87867)">
    <g
       id="g4816">
      <path
         id="path6"
         transform="translate(0,-911.28297)"
         style="display:inline;fill:#ffffff;fill-opacity:1;stroke-width:10.4637661"
         d="m 450.12695,214.4043 c -21.77303,0 -39.06445,17.50987 -39.06445,39.56054 v 63.5586 h -64.03711 c -21.77312,0 -39.06445,17.50985 -39.06445,39.56054 0,22.05064 17.29133,39.5625 39.06445,39.5625 h 64.03711 v 64.20704 c 0,22.05066 17.29142,39.56054 39.06445,39.56054 21.77306,0 39.0625,-17.50988 39.0625,-39.56054 v -64.20704 h 63.39844 c 21.77302,0 39.06445,-17.51186 39.06445,-39.5625 0,-21.40209 -17.29116,-39.56054 -38.42382,-39.56054 h -64.03907 v -63.5586 c 0,-22.05067 -17.28944,-39.56054 -39.0625,-39.56054 z m -97.97851,206.23828 c -55.07299,0 -99.26002,44.7502 -99.90039,100.52539 0,55.77526 44.8274,100.52539 99.90039,100.52539 21.77302,0 39.0625,-17.51183 39.0625,-39.5625 0,-22.05066 -17.28948,-39.56055 -39.0625,-39.56055 -5.76349,0 -11.52684,-1.94653 -15.36914,-6.48633 -3.84231,-3.89132 -6.4043,-9.07904 -6.4043,-14.91601 0,-5.83693 1.92161,-11.02473 6.4043,-14.91602 3.8423,-4.53984 9.60565,-6.48632 15.36914,-6.48633 21.77302,0 39.0625,-17.51182 39.0625,-39.5625 0,-22.05067 -17.28948,-39.56054 -39.0625,-39.56054 z m 555.21289,0 c -55.07285,0 -99.26009,44.75018 -99.90039,100.52539 0,55.77524 44.82754,100.52539 99.90039,100.52539 21.77305,0 39.0625,-17.51175 39.0625,-39.5625 0,-21.40206 -17.29122,-39.56055 -38.42383,-39.56055 h -0.63867 c -5.76342,0 -11.52667,-1.94644 -15.36914,-6.48633 -3.84218,-3.89124 -6.4043,-9.07906 -6.4043,-14.91601 0,-5.83694 1.92168,-11.02481 6.4043,-14.91602 3.84247,-3.89133 9.60572,-6.48633 15.36914,-6.48633 21.77305,0 39.0625,-17.50987 39.0625,-39.56054 0,-22.0506 -17.28945,-39.5625 -39.0625,-39.5625 z m -253.37891,0.41406 c -6.99872,0.0261 -14.10307,1.77574 -20.70703,5.42383 -20.49222,11.02539 -28.81619,36.96708 -17.92969,58.36914 0,0 5.5e-4,0.64844 0.64063,0.64844 l 51.87109,96.63281 c 8.32498,15.56521 24.9734,24.64487 42.26367,22.69922 14.72894,-1.29714 27.53759,-9.72818 33.94141,-22.69922 l 51.87109,-96.63281 c 11.52699,-20.75352 4.48277,-46.69525 -15.36914,-58.36914 -0.64008,0 -0.64059,-0.64844 -1.28125,-0.64844 -21.13265,-11.67389 -47.38704,-3.89239 -58.91406,17.50976 l -14.08984,25.94141 -14.08789,-25.94141 c -7.92476,-14.71397 -22.8118,-22.99106 -38.20899,-22.93359 z m -505.47656,0.23438 c -52.51152,0 -96.058594,42.80324 -96.058594,96.63281 0,30.48179 14.089304,59.66681 38.423828,77.82617 16.009616,11.6739 37.781906,8.43239 49.949216,-7.13281 12.16731,-15.56513 8.9669,-38.26564 -6.40234,-49.93946 l -0.64063,-0.64843 c -10.88647,-7.78258 -13.44828,-23.34774 -5.76367,-34.37305 4.48269,-6.48555 12.16694,-10.37695 19.85156,-10.37695 6.4038,0 12.1678,2.59502 16.65039,6.48632 14.72885,13.61956 37.78236,12.32293 51.23047,-2.59374 12.80769,-14.2681 12.16653,-36.31992 -1.92187,-49.93946 l -0.64063,-0.64844 C 195.25288,430.37026 172.2,421.29102 148.50586,421.29102 Z m 404.08203,0 c -23.69421,0 -43.54687,19.45681 -43.54687,43.45312 v 96.63281 c 0,23.99631 19.21228,44.10157 43.54687,44.10157 24.33453,0 42.90625,-20.10526 42.90625,-44.10157 v -96.63281 c 0,-23.99631 -19.21209,-43.45312 -42.90625,-43.45312 z M 914.4043,508.8457 c -6.40394,0 -12.16602,5.83682 -12.16602,12.32227 0,6.48548 5.76216,12.32226 12.16602,12.32226 7.04411,0 12.16824,-5.18825 12.80859,-12.32226 0,-7.13407 -5.76412,-12.32227 -12.16797,-12.32227 z m -706.98438,3.89063 c -17.92978,0.001 -32.01785,14.26896 -32.6582,32.42773 v 25.29297 c 0,18.15938 14.08882,32.42774 32.01953,32.42774 h 0.63867 c 17.93073,0 32.01969,-14.26836 32.66016,-32.42774 V 545.16406 C 239.44,527.00529 225.35166,512.73737 207.42188,512.73633 Z m -141.148436,151.125 c -7.89702,0 -13.539062,5.71322 -13.539062,13.71094 v 90.25781 c -1.128123,7.99765 3.386173,14.85359 11.283203,15.99609 h 59.791015 c 6.7689,0 11.28125,-4.57062 11.28125,-11.42578 0,-6.85515 -4.51235,-11.42383 -11.28125,-11.42383 H 79.808594 v -83.40429 c 0,-7.99772 -5.640152,-13.71094 -13.53711,-13.71094 z m 641.023436,0.13281 c -6.65439,0 -13.30859,5.61631 -13.30859,12.35547 v 94.34766 c 0,7.86233 5.54518,13.47851 13.30859,13.47851 7.76315,0 13.3086,-5.61618 13.3086,-13.47851 v -93.22461 c 0,-6.73914 -5.54545,-13.47852 -13.3086,-13.47852 z m 224.9043,2.24805 c -4.73528,0.19727 -9.05058,4.32448 -10.00977,10.15234 v 69.93555 L 877.25,673.06445 c -3.28826,-4.44027 -7.67397,-6.66015 -13.1543,-6.66015 -7.67288,-1.1101 -14.24916,3.33104 -16.4414,11.10156 v 94.35547 c -1.09615,5.55037 3.28887,11.10081 9.86523,12.21094 h 2.19336 c 5.48048,1.11009 10.96041,-3.32992 12.05664,-9.99024 v -67.71484 l 44.93945,71.04492 c 2.19196,5.55029 8.76961,7.77025 14.25,6.66016 7.67262,1.11009 14.24763,-4.44043 15.34375,-12.21094 v -93.2461 c 1.09611,-5.55031 -3.28678,-11.1009 -9.86328,-12.21093 h -2.19336 c -0.68502,-0.13877 -1.3704,-0.19029 -2.04687,-0.16211 z"
         inkscape:connector-curvature="0" />
      <g
         aria-label="G"
         style="font-style:normal;font-weight:normal;font-size:15.16426945px;line-height:1.25;font-family:sans-serif;letter-spacing:0px;word-spacing:0px;display:inline;fill:#ffffff;fill-opacity:1;stroke:none;stroke-width:0.37910676"
         id="text17"
         transform="matrix(8.8259575,0,0,8.8259575,-123.29844,-830.90011)">
        <path
           d="m 75.952403,72.529952 h -1.818061 c -0.611907,0 -1.130475,0.596366 -1.128203,1.1282 0.0022,0.527347 0.516296,1.10908 1.128203,1.10908 h 0.729572 v 1.415033 c -0.803126,0.803126 -1.717312,1.300299 -2.941124,1.300299 -2.371134,0 -3.952389,-1.910737 -3.952389,-4.377482 0,-2.447623 1.581255,-4.533397 3.952389,-4.533397 1.20469,0 1.982817,0.516295 2.805066,1.376788 0.210343,0.210342 0.497173,0.363318 0.822249,0.363318 0.631028,0 1.147324,-0.516295 1.147324,-1.147323 0,-0.325074 -0.114738,-0.592783 -0.325076,-0.803125 -1.223812,-1.281179 -2.613845,-2.02694 -4.449563,-2.02694 -3.652313,0 -6.59711,3.002165 -6.59711,6.692722 0,3.709679 2.944797,6.692721 6.59711,6.692721 1.873962,0 3.379463,-0.764882 4.660641,-2.103427 0.420685,-0.439808 0.535417,-0.879615 0.535417,-1.472399 v -2.447623 c 0,-0.631028 -0.516296,-1.166445 -1.166445,-1.166445 z"
           style="font-style:normal;font-variant:normal;font-weight:bold;font-stretch:normal;font-family:'Polly Rounded';-inkscape-font-specification:'Polly Rounded Bold';fill:#ffffff;fill-opacity:1;stroke-width:0.47805154"
           id="path824"
           inkscape:connector-curvature="0"
           sodipodi:nodetypes="ssasccssscsscssscsss" />
      </g>
      <g
         aria-label="O"
         style="font-style:normal;font-variant:normal;font-weight:bold;font-stretch:normal;font-size:20.91718102px;line-height:1.25;font-family:'Polly Rounded';-inkscape-font-specification:'Polly Rounded Bold';letter-spacing:0px;word-spacing:0px;display:inline;fill:#008bc3;fill-opacity:1;stroke:none;stroke-width:0.52292949"
         id="text841"
         transform="matrix(5.5897472,0,0,5.5897472,126.3222,-493.23575)" />
      <g
         aria-label="O"
         transform="matrix(10.241489,0,0,10.747245,-276.09604,-807.71086)"
         style="font-style:normal;font-variant:normal;font-weight:bold;font-stretch:normal;font-size:15.92260265px;line-height:1.25;font-family:'Polly Rounded';-inkscape-font-specification:'Polly Rounded Bold';letter-spacing:0px;word-spacing:0px;display:inline;fill:#ff8bc3;fill-opacity:1;stroke:none;stroke-width:0.39806512"
         id="text822">
        <g
           id="g861">
          <path
             style="fill:#ffffff;fill-opacity:1;stroke-width:4.17622852"
             d="m 296.73242,663.96289 c -32.12501,0 -57.88867,26.86758 -57.88867,59.89453 0,33.19808 25.76366,59.89258 57.88867,59.89258 31.96195,0 57.89063,-26.6945 57.89063,-59.89258 0,-33.02695 -25.92868,-59.89453 -57.89063,-59.89453 z m -0.18359,20.40625 c 13.12278,0.19653 25.45495,6.72157 32.99219,17.46094 l 0.008,0.002 c 1.17938,1.67767 0.77539,3.9945 -0.90235,5.17383 -1.68081,1.17462 -3.99601,0.77457 -5.17382,-0.90625 -6.17366,-8.79543 -16.2768,-14.14126 -27.02539,-14.30078 -8.71969,-0.12537 -16.85667,3.10631 -22.85547,9.11133 -5.74503,5.74813 -8.83964,13.38637 -8.71094,21.51172 l -0.0273,3.6582 c -0.0589,2.01202 -1.71135,3.60742 -3.71094,3.60742 -0.0357,0 -0.0755,9e-5 -0.11133,-0.004 -2.05072,-0.0588 -3.66062,-1.77154 -3.60352,-3.82226 l 0.0156,-3.32227 c -0.16099,-10.15434 3.7062,-19.6989 10.88281,-26.88476 7.43037,-7.43359 17.42137,-11.41531 28.22266,-11.28516 z m 0.18945,12.70508 v 0.002 c 15.64551,0.23215 28.5715,12.85728 28.8125,28.14063 0.0961,6.19618 -0.20909,12.39197 -0.91211,18.54882 -0.16563,1.4285 -1.52563,3.56938 -4.11328,3.26758 -2.03671,-0.23215 -3.50003,-2.07495 -3.26758,-4.11328 0.66556,-5.80691 0.95478,-11.72526 0.86328,-17.58789 -0.17802,-11.31043 -9.81989,-20.65294 -21.49414,-20.82812 -1.78452,-0.0129 -3.55144,0.16623 -5.26172,0.57031 -1.99495,0.46429 -3.99919,-0.76477 -4.47265,-2.75977 -0.47053,-1.99807 0.76477,-3.99724 2.75976,-4.4707 2.30761,-0.54602 4.70096,-0.83383 7.08594,-0.76953 z m -19.39844,8.82031 c 0.14842,-0.005 0.29699,-10e-4 0.44532,0.0117 0.71197,0.0633 1.41391,0.33039 2.01172,0.81445 1.59085,1.29542 1.83142,3.63549 0.53906,5.22657 -2.90962,3.57361 -4.40779,7.90674 -4.33399,12.53125 0.0991,6.29436 -0.41257,12.61134 -1.52539,18.77734 -0.12687,0.70415 -1.20403,3.53749 -4.3164,2.99609 -2.01974,-0.36532 -3.35798,-2.29666 -2.9961,-4.3164 1.02806,-5.69233 1.50166,-11.52558 1.41016,-17.3418 -0.0991,-6.30216 2.03093,-12.4588 5.99609,-17.33398 0.71015,-0.87008 1.73062,-1.33337 2.76953,-1.36524 z m 19.58789,3.88867 c 8.81711,0.12995 16.10048,7.26242 16.23633,15.89844 0.12229,7.87772 -0.46262,15.79799 -1.74414,23.54102 -0.11922,0.72277 -1.1789,3.57619 -4.26953,3.06054 -2.02283,-0.33428 -3.39208,-2.24821 -3.05664,-4.26953 1.20728,-7.30815 1.76009,-14.78015 1.64063,-22.21679 -0.0727,-4.66321 -4.07024,-8.51224 -8.91602,-8.58594 -5.34418,-0.0233 -8.49224,4.08531 -8.42774,8.10156 0.12387,7.96124 -0.62431,15.92929 -2.2246,23.68164 -0.41636,2.00887 -2.36899,3.3001 -4.38868,2.88672 -2.00729,-0.41323 -3.30102,-2.38177 -2.88476,-4.39063 1.48849,-7.21848 2.18427,-14.64292 2.06836,-22.0625 -0.13153,-8.36061 6.48563,-15.65883 15.96679,-15.64453 z m 35.14844,3.16992 c 1.73902,-0.0312 3.28648,1.16833 3.67383,2.91797 h -0.002 c 0.96664,4.36912 0.93094,7.76454 0.90234,11.19727 -0.017,2.04143 -1.67657,3.68164 -3.71484,3.68164 h -0.0273 c -2.05071,-0.017 -3.69789,-1.69042 -3.68359,-3.74414 0.0325,-3.7439 5.3e-4,-6.21964 -0.72852,-9.5332 -0.44264,-2.00422 0.82352,-3.98504 2.82618,-4.42774 0.25343,-0.0567 0.50547,-0.0878 0.7539,-0.0918 z m -35.01562,9.47852 c 2.0523,0 3.71489,1.66412 3.71289,3.71484 0.24151,15.33903 -2.4685,27.33304 -4.5625,34.74805 -0.46127,1.64055 -1.95227,2.71289 -3.57422,2.71289 -3.245,0 -4.00081,-3.21438 -3.57813,-4.71875 3.02726,-10.77963 4.46373,-21.56021 4.28711,-32.74219 0,-2.05222 1.66416,-3.71484 3.71485,-3.71484 z"
             transform="matrix(0.09764205,0,0,0.0930471,26.958584,-9.6370847)"
             id="path828"
             inkscape:connector-curvature="0" />
        </g>
      </g>
    </g>
  </g>
  <style
     id="style4560"
     type="text/css">
	.st0{fill:#FAFAFA;}
</style>
</svg>
