<?xml version="1.0" standalone="no"?>
<!DOCTYPE svg PUBLIC "-//W3C//DTD SVG 20010904//EN"
 "http://www.w3.org/TR/2001/REC-SVG-20010904/DTD/svg10.dtd">
<svg version="1.0" xmlns="http://www.w3.org/2000/svg"
 width="700.000000pt" height="700.000000pt" viewBox="0 0 700.000000 700.000000"
 preserveAspectRatio="xMidYMid meet">
<metadata>
Created by potrace 1.11, written by Peter Selinger 2001-2013
</metadata>
<g transform="translate(0.000000,700.000000) scale(0.100000,-0.100000)"
fill="#000000" stroke="none">
<path d="M3298 6995 c-2 -2 -41 -6 -88 -9 -47 -3 -94 -8 -105 -10 -11 -2 -47
-7 -80 -10 -33 -4 -67 -9 -75 -11 -8 -2 -31 -7 -50 -10 -314 -52 -727 -203
-1024 -374 -179 -103 -427 -275 -505 -350 -10 -9 -44 -39 -77 -68 -539 -469
-949 -1179 -1099 -1903 -12 -61 -35 -194 -40 -235 -4 -27 -8 -61 -10 -75 -4
-23 -9 -73 -20 -205 -5 -59 -6 -398 -1 -470 5 -68 15 -174 21 -205 2 -14 6
-48 9 -77 3 -28 10 -72 16 -96 5 -24 12 -59 14 -78 3 -19 7 -43 10 -54 3 -15
39 -163 51 -215 22 -88 89 -287 140 -410 440 -1077 1380 -1858 2490 -2070 55
-11 122 -22 150 -26 27 -3 61 -8 75 -10 182 -25 665 -25 799 1 9 1 37 6 63 9
58 8 228 40 325 61 99 21 313 92 459 151 511 207 996 568 1345 1004 33 41 67
82 74 92 7 9 45 61 83 117 325 463 544 1043 608 1606 3 33 8 69 10 79 4 22 18
304 17 361 0 54 -14 324 -18 355 -2 14 -6 50 -9 80 -34 293 -147 719 -252 948
-13 29 -24 55 -24 58 0 12 -107 224 -163 324 -330 582 -847 1080 -1424 1369
-250 125 -460 203 -713 266 -133 32 -199 45 -315 60 -27 4 -63 9 -80 12 -16 3
-50 7 -75 9 -55 5 -507 13 -512 9z m482 -1258 c14 -3 43 -8 65 -11 459 -59
969 -306 1310 -635 161 -156 300 -324 336 -408 45 -104 -6 -224 -116 -274 -75
-35 -168 -19 -228 39 -16 15 -45 50 -65 77 -83 112 -261 295 -365 374 -266
200 -607 352 -872 387 -16 2 -36 6 -42 9 -24 9 -189 19 -298 19 -287 -1 -525
-52 -778 -166 -365 -164 -678 -465 -854 -819 -46 -93 -104 -240 -118 -299 -54
-232 -61 -294 -65 -586 -3 -182 -10 -216 -63 -272 -85 -91 -248 -85 -322 12
-44 58 -52 104 -50 306 2 203 9 303 31 425 34 197 72 327 141 490 299 702 969
1213 1733 1321 25 4 68 10 95 14 58 8 488 5 525 -3z m-30 -742 c396 -58 750
-239 1021 -523 264 -275 425 -625 456 -992 12 -139 5 -666 -11 -825 -3 -22 -7
-76 -11 -120 -3 -44 -7 -93 -9 -110 -2 -16 -7 -61 -11 -100 -14 -150 -96 -235
-228 -235 -43 0 -115 31 -146 64 -48 51 -60 94 -56 196 2 52 6 104 9 115 3 18
13 139 22 270 18 283 18 683 -1 795 -67 400 -343 754 -725 928 -239 109 -537
144 -778 91 -76 -17 -137 -13 -186 11 -163 78 -165 302 -5 386 39 20 129 39
234 50 33 4 62 8 64 10 5 5 319 -5 361 -11z m-1235 -524 c98 -44 148 -160 113
-262 -6 -19 -37 -70 -69 -114 -105 -147 -176 -316 -203 -485 -8 -47 -15 -150
-15 -230 -3 -242 -13 -479 -26 -590 -3 -25 -7 -65 -10 -90 -12 -105 -17 -147
-21 -175 -3 -16 -11 -70 -19 -120 -19 -128 -32 -163 -80 -210 -42 -42 -75 -57
-132 -60 -128 -6 -224 81 -229 205 -1 30 6 103 16 161 18 103 25 160 36 264 2
28 7 70 9 95 11 99 16 223 20 449 5 294 9 329 51 501 45 181 112 329 226 500
68 101 129 162 173 173 46 11 122 6 160 -12z m1170 -215 c111 -17 181 -39 283
-87 285 -137 482 -401 533 -714 11 -71 8 -596 -5 -725 -2 -25 -7 -86 -10 -136
-4 -50 -9 -102 -11 -115 -2 -13 -6 -60 -10 -103 -4 -43 -8 -86 -10 -95 -2 -16
-13 -87 -21 -151 -3 -19 -7 -46 -9 -60 -2 -14 -7 -45 -11 -70 -11 -87 -59
-166 -116 -195 -18 -9 -58 -19 -89 -21 -75 -6 -151 32 -194 96 -27 41 -30 52
-29 125 0 44 4 100 8 125 4 25 9 56 11 70 1 14 6 45 9 70 14 102 16 117 21
170 3 30 7 75 10 100 19 179 26 316 29 610 3 197 0 245 -14 295 -124 436 -732
526 -937 139 -45 -85 -54 -131 -59 -289 -5 -208 -15 -453 -19 -510 -9 -127
-17 -199 -31 -310 -16 -128 -19 -149 -34 -235 -5 -30 -12 -73 -15 -95 -4 -22
-8 -47 -10 -55 -2 -8 -7 -35 -10 -59 -16 -109 -79 -198 -157 -218 -108 -28
-214 19 -263 116 -16 33 -24 158 -11 179 6 9 5 8 35 187 23 138 27 168 36 250
4 33 8 71 11 85 2 14 6 57 9 95 3 39 7 97 10 130 3 33 7 164 10 290 5 231 11
343 19 380 54 255 189 457 392 588 109 70 199 107 319 131 120 23 227 27 330
12z m2042 -206 c73 -42 104 -106 128 -270 2 -19 7 -44 9 -56 18 -88 26 -460
10 -519 -24 -98 -116 -165 -217 -160 -61 3 -101 21 -145 66 -52 53 -61 93 -66
309 -5 196 -8 228 -28 330 -32 161 0 252 106 306 42 21 61 25 108 21 32 -3 73
-14 95 -27z m-2087 -535 c49 -12 124 -89 137 -143 15 -57 4 -706 -12 -732 -2
-3 -6 -50 -10 -105 -3 -55 -8 -107 -10 -115 -3 -8 -7 -46 -11 -85 -3 -38 -8
-73 -10 -76 -1 -3 -6 -30 -9 -60 -5 -46 -25 -165 -50 -307 -9 -50 -73 -340
-90 -407 -8 -33 -18 -69 -20 -80 -18 -78 -48 -163 -66 -190 -45 -65 -112 -95
-197 -89 -75 5 -122 33 -159 94 -45 76 -45 125 2 301 19 70 36 137 39 150 40
191 96 475 101 514 6 52 14 106 20 141 2 11 6 52 10 90 4 38 9 77 11 88 2 10
6 51 9 90 3 39 8 89 10 111 8 62 16 292 19 485 2 156 4 179 23 215 52 99 145
138 263 110z"/>
</g>
</svg>
