<?xml version="1.0" encoding="UTF-8" standalone="no"?>
<!-- Created with Inkscape (http://www.inkscape.org/) -->

<svg
   xmlns:dc="http://purl.org/dc/elements/1.1/"
   xmlns:cc="http://creativecommons.org/ns#"
   xmlns:rdf="http://www.w3.org/1999/02/22-rdf-syntax-ns#"
   xmlns:svg="http://www.w3.org/2000/svg"
   xmlns="http://www.w3.org/2000/svg"
   xmlns:sodipodi="http://sodipodi.sourceforge.net/DTD/sodipodi-0.dtd"
   xmlns:inkscape="http://www.inkscape.org/namespaces/inkscape"
   width="38"
   height="38"
   viewBox="0 0 1000 635.50956"
   version="1.1"
   id="svg47"
   inkscape:version="0.92.3 (2405546, 2018-03-11)"
   sodipodi:docname="active-login-logo-full.svg"
   inkscape:export-filename="C:\Users\petero\Desktop\active-login-logo-full.png"
   inkscape:export-xdpi="96"
   inkscape:export-ydpi="96">
  <defs
     id="defs41" />
  <sodipodi:namedview
     id="base"
     pagecolor="#ffffff"
     bordercolor="#666666"
     borderopacity="1.0"
     inkscape:pageopacity="0.0"
     inkscape:pageshadow="2"
     inkscape:zoom="0.7"
     inkscape:cx="522.41109"
     inkscape:cy="279.72137"
     inkscape:document-units="px"
     inkscape:current-layer="g4816"
     showgrid="false"
     showguides="true"
     inkscape:window-width="1600"
     inkscape:window-height="837"
     inkscape:window-x="137"
     inkscape:window-y="1192"
     inkscape:window-maximized="1"
     fit-margin-top="0"
     fit-margin-left="0"
     fit-margin-right="0"
     fit-margin-bottom="0"
     units="px"
     inkscape:guide-bbox="true" />
  <metadata
     id="metadata44">
    <rdf:RDF>
      <cc:Work
         rdf:about="">
        <dc:format>image/svg+xml</dc:format>
        <dc:type
           rdf:resource="http://purl.org/dc/dcmitype/StillImage" />
        <dc:title></dc:title>
      </cc:Work>
    </rdf:RDF>
  </metadata>
  <g
     style="display:inline"
     inkscape:label="Active Logga"
     id="g4608"
     inkscape:groupmode="layer"
     transform="translate(-41.359123,-135.70684)">
    <text
       id="text4606"
       y="642.87683"
       x="281.42856"
       style="font-style:normal;font-weight:normal;font-size:40px;line-height:1.25;font-family:sans-serif;letter-spacing:0px;word-spacing:0px;fill:#000000;fill-opacity:1;stroke:none"
       xml:space="preserve"><tspan
         y="679.37006"
         x="281.42856"
         id="tspan4604"
         sodipodi:role="line" /></text>
    <text
       xml:space="preserve"
       style="font-style:normal;font-variant:normal;font-weight:normal;font-stretch:normal;font-size:40px;line-height:1.25;font-family:'Arial Rounded MT Bold';-inkscape-font-specification:'Arial Rounded MT Bold, Normal';font-variant-ligatures:normal;font-variant-caps:normal;font-variant-numeric:normal;font-feature-settings:normal;text-align:start;letter-spacing:0px;word-spacing:0px;writing-mode:lr-tb;text-anchor:start;fill:#000000;fill-opacity:1;stroke:none"
       x="157.14786"
       y="757.2569"
       id="text87"><tspan
         sodipodi:role="line"
         id="tspan85"
         x="157.14786"
         y="793.30322" /></text>
  </g>
  <g
     inkscape:groupmode="layer"
     id="layer1"
     inkscape:label="Login Text"
     style="display:inline"
     transform="translate(0,546.79244)">
    <g
       id="g4816">
      <path
         class="st0"
         d="m 732.04906,-44.690647 c -7.4156,0 -14.83105,6.258369 -14.83105,13.768429 V 74.218194 c 0,8.76171 6.17957,15.020019 14.83105,15.020019 8.65118,0 14.83082,-6.258309 14.83082,-15.020019 V -29.67055 c 0,-7.510038 -6.17964,-15.020097 -14.83082,-15.020097 -1.23591,0 0,0 0,0 m 252.91231,2.685716 c -6.10718,-1.237088 -12.21444,3.711106 -13.43607,11.133413 v 77.934243 l -50.08061,-81.645368 c -3.66441,-4.948193 -8.55031,-7.422288 -14.65754,-7.422288 -8.55059,-1.237088 -15.87933,3.711106 -18.32234,12.370501 V 75.51491 c -1.22155,6.18528 3.66456,12.370479 10.9932,13.607588 h 2.44304 c 6.1074,1.237086 12.21467,-3.711204 13.4363,-11.133412 V 2.5289378 L 965.41803,81.70019 c 2.44269,6.185199 9.77176,8.659394 15.87909,7.422308 8.55029,1.237086 15.87925,-4.948213 17.10072,-13.607588 V -28.397422 c 1.22151,-6.185221 -3.6645,-12.3705 -10.9933,-13.607509 h -2.44317 M 81.814015,63.384452 H 32.783603 v -92.945178 c 0,-8.91259 -6.286029,-15.278731 -15.086325,-15.278731 -8.8003735,0 -15.0863223,6.366141 -15.0863223,15.278731 V 71.023767 C 1.353782,79.936277 6.3825564,87.575671 15.182932,88.848868 h 66.631083 c 7.543201,0 12.571897,-5.092923 12.571897,-12.732259 0,-7.639316 -5.028696,-12.732157 -12.571897,-12.732157 M 603.17673,-386.70807 c 0,-23.8503 -19.26823,-44.08693 -42.81828,-44.08693 h -71.36377 v -70.82829 c 0,-24.57307 -19.26818,-44.08699 -43.53188,-44.08699 -24.26368,0 -43.53198,19.51392 -43.53198,44.08699 v 70.82829 h -71.36368 c -24.26377,0 -43.53199,19.51383 -43.53199,44.08693 0,24.57304 19.26822,44.08699 43.53199,44.08699 h 71.36368 v 71.55096 c 0,24.57307 19.2683,44.08703 43.53198,44.08703 24.2637,0 43.53188,-19.51396 43.53188,-44.08703 v -71.55096 h 70.65015 c 24.26367,0 43.5319,-19.51395 43.5319,-44.08699 m 209.09586,77.33289 c -23.55005,-13.00929 -52.80916,-4.33642 -65.65476,19.51394 l -15.69994,28.90948 -15.70006,-28.90948 c -12.84551,-23.85036 -42.10466,-32.52323 -65.65471,-19.51394 -22.83635,12.28659 -32.11365,41.19608 -19.98183,65.04635 0,0 0,0.72286 0.71329,0.72286 l 57.80466,107.68783 c 9.27728,17.34573 27.83188,27.46409 47.10001,25.29588 16.4138,-1.44553 30.68655,-10.84107 37.8229,-25.29588 l 57.80456,-107.68776 c 12.84557,-23.12754 4.99559,-52.03705 -17.1272,-65.04633 -0.7133,0 -0.7133,-0.72286 -1.42725,-0.72286 m 137.01861,105.5196 c 0,7.22736 6.42258,13.73203 13.55906,13.73203 7.84989,0 13.55905,-5.78195 14.27262,-13.73203 0,-7.95014 -6.42273,-13.73198 -13.55914,-13.73198 h -0.71332 c -7.13648,0 -13.55906,6.50465 -13.55906,13.73198 m 49.24071,67.93728 c 0,-23.85027 -19.26809,-44.08692 -42.81813,-44.08692 h -0.71329 c -6.42273,0 -12.84534,-2.16819 -17.12735,-7.22741 -4.28169,-4.33636 -7.13633,-10.1183 -7.13633,-16.62295 0,-6.50463 2.14094,-12.28655 7.13633,-16.62288 4.28201,-4.33646 10.70462,-7.22747 17.12735,-7.22747 24.26374,0 43.53182,-19.51392 43.53182,-44.08699 0,-24.573 -19.26808,-44.08692 -43.53182,-44.08692 -61.37272,0 -110.61386,49.86886 -111.3274,112.02426 0,62.15544 49.95468,112.024278 111.3274,112.024278 24.26374,0 43.53182,-19.513838 43.53182,-44.086998 m -391.07391,-23.12763 v -107.68791 c 0,-26.74128 -21.40915,-48.42342 -47.81372,-48.42342 -26.40462,0 -48.52733,21.68214 -48.52733,48.42342 v 107.68791 c 0,26.74128 21.40908,49.14613 48.52733,49.14613 27.11819,0 47.81372,-22.40485 47.81372,-49.14613 M 336.2759,-227.70592 c 24.26367,0 43.53189,-19.51393 43.53189,-44.08699 0,-24.57307 -19.26822,-44.087 -43.53189,-44.087 -61.37285,0 -110.61391,49.86887 -111.32753,112.02426 0,62.15545 49.95468,112.02436 111.32753,112.02436 24.26367,0 43.53189,-19.51392 43.53189,-44.087 0,-24.57306 -19.26822,-44.087 -43.53189,-44.087 -6.42278,0 -12.84552,-2.1682 -17.12734,-7.22731 -4.28184,-4.33646 -7.13634,-10.11839 -7.13634,-16.62305 0,-6.50463 2.14087,-12.28647 7.13634,-16.62289 4.28182,-5.05915 10.70456,-7.22738 17.12734,-7.22738 m -161.28215,14.45472 c -19.98183,0 -35.68192,15.90021 -36.39555,36.13693 v 28.1867 c 0,20.23666 15.7001,36.13686 35.68193,36.13686 h 0.71331 c 19.98185,0 35.68183,-15.9002 36.39556,-36.13686 v -28.1867 c -0.71332,-20.23672 -16.41371,-36.13693 -36.39556,-36.13693 m 9.27728,-17.34571 c 14.27278,-15.90023 13.55904,-40.47328 -2.14095,-55.65078 l -0.71331,-0.72287 c -19.98183,-18.06843 -45.67284,-28.18669 -72.07738,-28.18669 -58.518369,0 -107.0457203,47.70062 -107.0457203,107.68782 0,33.96863 15.7000863,66.49185 42.8182643,86.72848 17.840966,13.00929 42.104641,9.39559 55.663776,-7.95013 13.55914,-17.34565 9.99092,-42.64149 -7.136424,-55.65069 l -0.713307,-0.72289 c -12.131798,-8.67283 -14.986382,-26.01855 -6.422713,-38.30505 4.995463,-7.22744 13.559134,-11.56386 22.122804,-11.56386 7.13634,0 13.55914,2.89091 18.55451,7.22734 16.4137,15.17751 42.10464,13.73208 57.09109,-2.89092"
         id="path6"
         inkscape:connector-curvature="0"
         style="fill:#008bc3;stroke-width:11.66072845"
         sodipodi:nodetypes="cssssssccccccccccccccccccccsssccssccscssscssscssscscccccccccccccccscssccsscscssscsccsssssccsscssscsccccsssccccccsscscccscc" />
      <g
         aria-label="G"
         style="font-style:normal;font-weight:normal;font-size:15.16426945px;line-height:1.25;font-family:sans-serif;letter-spacing:0px;word-spacing:0px;fill:#000000;fill-opacity:1;stroke:none;stroke-width:0.37910676"
         id="text17"
         transform="matrix(9.8355695,0,0,9.8355695,-191.86863,-695.06227)">
        <path
           d="m 75.952403,72.529952 h -1.818061 c -0.611907,0 -1.130475,0.596366 -1.128203,1.1282 0.0022,0.527347 0.516296,1.10908 1.128203,1.10908 h 0.729572 v 1.415033 c -0.803126,0.803126 -1.717312,1.300299 -2.941124,1.300299 -2.371134,0 -3.952389,-1.910737 -3.952389,-4.377482 0,-2.447623 1.581255,-4.533397 3.952389,-4.533397 1.20469,0 1.982817,0.516295 2.805066,1.376788 0.210343,0.210342 0.497173,0.363318 0.822249,0.363318 0.631028,0 1.147324,-0.516295 1.147324,-1.147323 0,-0.325074 -0.114738,-0.592783 -0.325076,-0.803125 -1.223812,-1.281179 -2.613845,-2.02694 -4.449563,-2.02694 -3.652313,0 -6.59711,3.002165 -6.59711,6.692722 0,3.709679 2.944797,6.692721 6.59711,6.692721 1.873962,0 3.379463,-0.764882 4.660641,-2.103427 0.420685,-0.439808 0.535417,-0.879615 0.535417,-1.472399 v -2.447623 c 0,-0.631028 -0.516296,-1.166445 -1.166445,-1.166445 z"
           style="font-style:normal;font-variant:normal;font-weight:bold;font-stretch:normal;font-family:'Polly Rounded';-inkscape-font-specification:'Polly Rounded Bold';fill:#008bc3;fill-opacity:1;stroke-width:0.47805154"
           id="path824"
           inkscape:connector-curvature="0"
           sodipodi:nodetypes="ssasccssscsscssscsss" />
      </g>
      <g
         aria-label="O"
         style="font-style:normal;font-variant:normal;font-weight:bold;font-stretch:normal;font-size:20.91718102px;line-height:1.25;font-family:'Polly Rounded';-inkscape-font-specification:'Polly Rounded Bold';letter-spacing:0px;word-spacing:0px;fill:#008bc3;fill-opacity:1;stroke:none;stroke-width:0.52292949"
         id="text841"
         transform="matrix(6.2291651,0,0,6.2291651,86.30642,-318.77211)" />
      <circle
         style="fill:#008bc3;fill-opacity:1;stroke-width:14.40868187"
         id="path827"
         cx="279.20523"
         cy="21.286966"
         r="57.584858" />
      <g
         aria-label="O"
         transform="matrix(11.413025,0,0,11.976635,-362.14489,-669.22045)"
         style="font-style:normal;font-variant:normal;font-weight:bold;font-stretch:normal;font-size:15.92260265px;line-height:1.25;font-family:'Polly Rounded';-inkscape-font-specification:'Polly Rounded Bold';letter-spacing:0px;word-spacing:0px;fill:#008bc3;fill-opacity:1;stroke:none;stroke-width:0.39806512"
         id="text822">
        <path
           d="m 55.932213,63.288593 c 3.12083,0 5.652524,-2.483926 5.652524,-5.572911 0,-3.073062 -2.531694,-5.572911 -5.652524,-5.572911 -3.136752,0 -5.652524,2.499849 -5.652524,5.572911 0,3.088985 2.515772,5.572911 5.652524,5.572911 z m 0,-1.803832 c -2.054015,0 -3.21372,-1.715063 -3.21372,-3.769079 0,-2.038093 1.159705,-3.739522 3.21372,-3.739522 2.038093,0 3.213721,1.701429 3.213721,3.739522 0,2.054016 -1.175628,3.769079 -3.213721,3.769079 z"
           style="fill:#008bc3;fill-opacity:1;stroke-width:0.39806512"
           id="path828"
           inkscape:connector-curvature="0"
           sodipodi:nodetypes="ssssssssss" />
      </g>
      <path
         sodipodi:nodetypes="sccsccsccccccccccccccccccccccccccccccccccccccccscccccccccscccccccc"
         id="path830"
         d="m 277.55119,21.495736 c -2.28527,0 -4.13933,1.852378 -4.13933,4.139347 0.19682,12.461108 -1.4039,24.473837 -4.77745,36.486568 -0.47103,1.676458 0.37137,5.258703 3.98757,5.258703 1.80749,0 3.46835,-1.193498 3.98239,-3.021713 2.33353,-8.263214 5.35355,-21.629871 5.08442,-38.723558 0.002,-2.285301 -1.85054,-4.139347 -4.1376,-4.139347 z M 277.403,7.3995954 C 266.83727,7.38372 259.46416,15.517824 259.61074,24.834807 c 0.12917,8.268314 -0.64717,16.541788 -2.30593,24.585991 -0.46388,2.23866 0.97797,4.430791 3.21488,4.891291 2.25072,0.460662 4.42731,-0.976233 4.8913,-3.214911 1.78335,-8.639138 2.61644,-17.519769 2.47842,-26.391708 -0.0719,-4.475667 3.43566,-9.053113 9.39117,-9.027203 5.40009,0.08214 9.85679,4.370378 9.93784,9.567004 0.13314,8.287341 -0.48457,16.614303 -1.82995,24.758439 -0.37381,2.252547 1.15387,4.384247 3.40809,4.75676 3.44417,0.574638 4.62389,-2.604325 4.75675,-3.409759 1.42812,-8.628783 2.08006,-17.455944 1.94378,-26.234796 C 295.3457,15.492011 287.2287,7.5444059 277.403,7.3995954 Z M 258.31204,3.9880716 c -1.7765,-1.4384812 -4.37564,-1.1728468 -5.82274,0.6001324 -4.41874,5.432857 -6.7937,12.293839 -6.68323,19.316912 0.10197,6.481545 -0.42562,12.982039 -1.57128,19.325522 -0.40328,2.25078 1.08829,4.403215 3.33907,4.810326 3.4684,0.603327 4.66885,-2.554369 4.81023,-3.33907 1.24012,-6.871339 1.81102,-13.911732 1.70062,-20.926114 -0.0822,-5.153513 1.58675,-9.982723 4.82921,-13.9651189 1.44019,-1.7730782 1.1711,-4.3790692 -0.60173,-5.822669 z m 18.88039,-10.7502079 c -2.6578,-0.071626 -5.32422,0.2486716 -7.89579,0.8571569 -2.2232,0.5276182 -3.59954,2.7560784 -3.07519,4.98271274 0.52762,2.22320296 2.75957,3.59260186 4.98272,3.07520106 1.90592,-0.4503028 3.87544,-0.650347 5.8641,-0.6360028 13.00968,0.1952232 23.75462,10.6070644 23.953,23.2113144 0.10196,6.53327 -0.22075,13.12693 -0.96244,19.598101 -0.25904,2.271494 1.37121,4.325581 3.6409,4.584292 2.88366,0.336324 4.39978,-2.04899 4.58436,-3.640893 0.78344,-6.861138 1.12296,-13.765869 1.01584,-20.670834 -0.26857,-17.0316311 -14.67228,-31.1019406 -32.1075,-31.3606517 z m 43.47515,20.9467693 c -0.49333,-2.228323 -2.67502,-3.656448 -4.93441,-3.15107 -2.23174,0.493335 -3.64265,2.700924 -3.14938,4.934404 0.81245,3.692613 0.84686,6.452203 0.81068,10.624363 -0.0159,2.288653 1.81954,4.154801 4.10483,4.173769 h 0.0319 c 2.27143,0 4.12037,-1.829882 4.13935,-4.104826 0.0319,-3.8254 0.0716,-7.607748 -1.00559,-12.47664 z m -6.91953,-15.6467789 c -8.39943,-11.9678531 -22.14379,-19.2410451 -36.7677,-19.4600561 -12.03686,-0.145028 -23.17004,4.292847 -31.45038,12.5767552 -7.99755,8.00785818 -12.30769,18.6442648 -12.12829,29.9601818 l -0.016,3.702972 c -0.0636,2.2853 1.72985,4.192811 4.01515,4.258324 0.0399,0.004 0.0846,0.004 0.1244,0.004 2.22833,0 4.06857,-1.77649 4.13418,-4.01866 l 0.0319,-4.077246 c -0.14342,-9.054805 3.30456,-17.5680221 9.70678,-23.9736823 6.68501,-6.6919281 15.75359,-10.2914727 25.47073,-10.1517597 11.97814,0.177763 23.23724,6.1331791 30.11712,15.9347294 1.31254,1.8730907 3.89097,2.319723 5.76405,1.0107362 1.86966,-1.3142248 2.32156,-3.89616973 1.00727,-5.7657488 z"
         inkscape:connector-curvature="0"
         style="display:inline;fill:#ffffff;fill-opacity:1;stroke-width:0.10214686" />
    </g>
  </g>
  <style
     id="style4560"
     type="text/css">
	.st0{fill:#FAFAFA;}
</style>
</svg>
