<svg xmlns="http://www.w3.org/2000/svg" width="133.49" height="133.49" id="svg47"><g id="g4608" transform="translate(-259.69 -594.365)" font-weight="400" font-size="40" letter-spacing="0" word-spacing="0"><text id="text4606" y="642.877" x="281.429" style="line-height:1.25" font-family="sans-serif"/><text style="line-height:1.25;-inkscape-font-specification:'Arial Rounded MT Bold, Normal';font-variant-ligatures:normal;font-variant-caps:normal;font-variant-numeric:normal;font-feature-settings:normal;text-align:start" x="157.148" y="757.257" id="text87" font-family="Arial Rounded MT Bold"/></g><g id="layer1" transform="translate(-218.331 88.135)"><g id="g4816"><path d="M285.076-88.135c-35.8 0-64.512 29.942-64.512 66.746 0 36.996 28.712 66.745 64.512 66.745 35.618 0 64.512-29.749 64.512-66.745 0-36.804-28.894-66.746-64.512-66.746zm.77 23.805c14.624.22 28.368 7.491 36.767 19.46h.01a4.138 4.138 0 0 1-6.771 4.756c-6.88-9.803-18.14-15.759-30.117-15.937-9.718-.14-18.786 3.46-25.471 10.153-6.402 6.405-9.85 14.92-9.707 23.974l-.031 4.077a4.142 4.142 0 0 1-4.135 4.02c-.04 0-.085 0-.125-.005a4.14 4.14 0 0 1-4.016-4.26l.018-3.703c-.18-11.316 4.13-21.951 12.127-29.959 8.28-8.284 19.414-12.721 31.451-12.576zm.213 14.16c17.435.259 31.838 14.328 32.107 31.36.107 6.905-.234 13.81-1.018 20.672-.184 1.591-1.7 3.976-4.584 3.64a4.14 4.14 0 0 1-3.64-4.584 151.908 151.908 0 0 0 .963-19.598c-.199-12.604-10.944-23.017-23.953-23.212a24.714 24.714 0 0 0-5.864.636c-2.223.518-4.457-.85-4.984-3.074a4.146 4.146 0 0 1 3.076-4.984c2.572-.609 5.239-.927 7.897-.856zm-21.124 9.84a4.141 4.141 0 0 1 2.844 6.732c-3.242 3.983-4.912 8.812-4.83 13.965.11 7.015-.459 14.055-1.7 20.926-.14.785-1.341 3.943-4.81 3.34a4.143 4.143 0 0 1-3.34-4.81 100.118 100.118 0 0 0 1.573-19.327 29.912 29.912 0 0 1 6.683-19.316 4.137 4.137 0 0 1 3.58-1.51zm21.333 4.32c9.825.145 17.944 8.093 18.095 17.717a147.108 147.108 0 0 1-1.945 26.235c-.133.805-1.312 3.984-4.756 3.41a4.137 4.137 0 0 1-3.408-4.756 138.634 138.634 0 0 0 1.83-24.76c-.081-5.197-4.537-9.484-9.938-9.566-5.955-.026-9.464 4.551-9.392 9.027a121.415 121.415 0 0 1-2.479 26.39 4.14 4.14 0 0 1-8.105-1.676 113.196 113.196 0 0 0 2.307-24.585c-.147-9.317 7.225-17.451 17.79-17.436zm39.171 3.534a4.125 4.125 0 0 1 4.094 3.252h-.004c1.077 4.868 1.038 8.65 1.006 12.476a4.139 4.139 0 0 1-4.139 4.106h-.03a4.14 4.14 0 0 1-4.106-4.174c.036-4.172.002-6.933-.81-10.625a4.138 4.138 0 0 1 3.148-4.934c.282-.063.564-.096.841-.101zm-39.023 10.564a4.137 4.137 0 0 1 4.139 4.139c.269 17.093-2.753 30.46-5.086 38.722a4.14 4.14 0 0 1-3.983 3.022c-3.616 0-4.457-3.581-3.986-5.258 3.373-12.013 4.974-24.025 4.777-36.486a4.138 4.138 0 0 1 4.139-4.139z" id="path827" fill="#fff" stroke-width="14.409"/></g></g><style id="style4560"></style></svg>